name rise31.4854peak64.571fall78.6902.mot
datacolumns 19
datarows 23
range 15.50661100000000 15.54327600000000
endheader
time	ground_force1_vx	ground_force1_vy	ground_force1_vz	ground_force1_px	ground_force1_py	ground_force1_pz	ground_force2_vx	ground_force2_vy	ground_force2_vz	ground_force2_px	ground_force2_py	ground_force2_pz	ground_torque1_x	ground_torque1_y	ground_torque1_z	ground_torque2_x	ground_torque2_y	ground_torque2_z	
15.50661100000000	-8.26578300000000	45.80043000000000	-17.29995200000000	0.29221300000000	0.00000000000000	0.05165400000000	-50.16530300000000	769.62310300000001	-51.44199000000000	0.10912700000000	0.00000000000000	-0.12613800000000	0.00000000000000	-11.58934900000000	0.00000000000000	0.00000000000000	-21.69809900000000	0.00000000000000	
15.50827200000000	-8.74006300000000	52.58665900000000	-19.08889600000000	0.29697200000000	0.00000000000000	0.05339200000000	-50.92507500000000	766.86658299999999	-50.85873200000000	0.10845400000000	0.00000000000000	-0.12601000000000	0.00000000000000	-12.90307500000000	0.00000000000000	0.00000000000000	-21.75733100000000	0.00000000000000	
15.50994600000000	-9.02457100000000	59.37154400000000	-20.67665300000000	0.30146400000000	0.00000000000000	0.05498400000000	-51.71228700000000	764.03391199999999	-50.25865200000000	0.10778000000000	0.00000000000000	-0.12587600000000	0.00000000000000	-14.10231300000000	0.00000000000000	0.00000000000000	-21.82312300000000	0.00000000000000	
15.51161200000000	-9.10776800000000	66.09175399999999	-22.03709500000000	0.30572200000000	0.00000000000000	0.05645000000000	-52.52572600000000	761.12143900000001	-49.64176200000000	0.10710600000000	0.00000000000000	-0.12573700000000	0.00000000000000	-15.16705700000000	0.00000000000000	0.00000000000000	-21.89513500000000	0.00000000000000	
15.51327400000000	-8.98708300000000	72.70776200000000	-23.15772900000000	0.30977700000000	0.00000000000000	0.05780600000000	-53.36404800000000	758.12531700000000	-49.00808900000000	0.10643300000000	0.00000000000000	-0.12559300000000	0.00000000000000	-16.08621800000000	0.00000000000000	0.00000000000000	-21.97299300000000	0.00000000000000	
15.51494600000000	-8.66798000000000	79.20349899999999	-24.03874000000000	0.31365000000000	0.00000000000000	0.05906700000000	-54.22578100000000	755.04151300000001	-48.35767700000000	0.10576300000000	0.00000000000000	-0.12544400000000	0.00000000000000	-16.85721300000000	0.00000000000000	0.00000000000000	-22.05628400000000	0.00000000000000	
15.51662300000000	-8.16253200000000	85.58413200000000	-24.69115300000000	0.31736100000000	0.00000000000000	0.06024300000000	-55.10932400000000	751.86582499999997	-47.69058700000000	0.10509600000000	0.00000000000000	-0.12529000000000	0.00000000000000	-17.48491300000000	0.00000000000000	0.00000000000000	-22.14456000000000	0.00000000000000	
15.51827700000000	-7.48769000000000	91.87247100000000	-25.13441600000000	0.32092500000000	0.00000000000000	0.06134400000000	-56.01294900000000	748.59388999999999	-47.00690200000000	0.10443300000000	0.00000000000000	-0.12513000000000	0.00000000000000	-17.98016900000000	0.00000000000000	0.00000000000000	-22.23733800000000	0.00000000000000	
15.51994200000000	-6.66345600000000	98.10454700000000	-25.39372300000000	0.32435400000000	0.00000000000000	0.06237800000000	-56.93480500000000	745.22120600000005	-46.30672600000000	0.10377600000000	0.00000000000000	-0.12496500000000	0.00000000000000	-18.35808600000000	0.00000000000000	0.00000000000000	-22.33410300000000	0.00000000000000	
15.52161000000000	-5.71111500000000	104.32485900000000	-25.49731300000000	0.32765900000000	0.00000000000000	0.06335200000000	-57.87291700000000	741.74314500000003	-45.59019000000000	0.10312600000000	0.00000000000000	-0.12479500000000	0.00000000000000	-18.63624600000000	0.00000000000000	0.00000000000000	-22.43430600000000	0.00000000000000	
15.52327900000000	-4.65167300000000	110.58175300000001	-25.47400200000000	0.33084900000000	0.00000000000000	0.06427300000000	-58.82519400000000	738.15497200000004	-44.85745300000000	0.10248400000000	0.00000000000000	-0.12461900000000	0.00000000000000	-18.83302700000000	0.00000000000000	0.00000000000000	-22.53736700000000	0.00000000000000	
15.52494400000000	-3.50457400000000	116.92325400000000	-25.35107400000000	0.33393000000000	0.00000000000000	0.06514500000000	-59.78942900000000	734.45186600000000	-44.10869900000000	0.10185000000000	0.00000000000000	-0.12443800000000	0.00000000000000	-18.96614100000000	0.00000000000000	0.00000000000000	-22.64267600000000	0.00000000000000	
15.52660800000000	-2.28676300000000	123.39362900000000	-25.15266800000000	0.33690800000000	0.00000000000000	0.06597300000000	-60.76330700000000	730.62893799999995	-43.34414700000000	0.10122700000000	0.00000000000000	-0.12425100000000	0.00000000000000	-19.05146500000000	0.00000000000000	0.00000000000000	-22.74959500000000	0.00000000000000	
15.52827900000000	-1.01209500000000	130.03078500000001	-24.89866200000000	0.33978800000000	0.00000000000000	0.06676000000000	-61.74440300000000	726.68125799999996	-42.56404700000000	0.10061400000000	0.00000000000000	-0.12405900000000	0.00000000000000	-19.10220800000000	0.00000000000000	0.00000000000000	-22.85746300000000	0.00000000000000	
15.52994100000000	0.30891400000000	136.86458500000001	-24.60408600000000	0.34257300000000	0.00000000000000	0.06751100000000	-62.73019700000000	722.60387600000001	-41.76868500000000	0.10001300000000	0.00000000000000	-0.12386200000000	0.00000000000000	-19.12842800000000	0.00000000000000	0.00000000000000	-22.96559000000000	0.00000000000000	
15.53161200000000	1.66904500000000	143.91601800000001	-24.27899300000000	0.34526700000000	0.00000000000000	0.06822900000000	-63.71807000000000	718.39184799999998	-40.95838300000000	0.09942400000000	0.00000000000000	-0.12366000000000	0.00000000000000	-19.13686600000000	0.00000000000000	0.00000000000000	-23.07326900000000	0.00000000000000	
15.53329700000000	3.06409800000000	151.19714700000000	-23.92872400000000	0.34787200000000	0.00000000000000	0.06891600000000	-64.70531900000000	714.04025999999999	-40.13349900000000	0.09884800000000	0.00000000000000	-0.12345200000000	0.00000000000000	-19.13105400000000	0.00000000000000	0.00000000000000	-23.17976900000000	0.00000000000000	
15.53494500000000	4.49243400000000	158.71169000000000	-23.55447100000000	0.35039000000000	0.00000000000000	0.06957400000000	-65.68915699999999	709.54425800000001	-39.29443300000000	0.09828700000000	0.00000000000000	-0.12323900000000	0.00000000000000	-19.11165200000000	0.00000000000000	0.00000000000000	-23.28434500000000	0.00000000000000	
15.53661100000000	5.95441900000000	166.45607100000001	-23.15405000000000	0.35282300000000	0.00000000000000	0.07020500000000	-66.66672400000000	704.89907200000005	-38.44162200000000	0.09773900000000	0.00000000000000	-0.12302100000000	0.00000000000000	-19.07693500000000	0.00000000000000	0.00000000000000	-23.38623500000000	0.00000000000000	
15.53827500000000	7.45180800000000	174.42078100000001	-22.72277300000000	0.35517200000000	0.00000000000000	0.07081300000000	-67.63509600000000	700.10004500000002	-37.57554700000000	0.09720700000000	0.00000000000000	-0.12279800000000	0.00000000000000	-19.02337500000000	0.00000000000000	0.00000000000000	-23.48466600000000	0.00000000000000	
15.53994500000000	8.98715200000000	182.59188800000001	-22.25435000000000	0.35743800000000	0.00000000000000	0.07139700000000	-68.59128699999999	695.14265999999998	-36.69673000000000	0.09669100000000	0.00000000000000	-0.12256900000000	0.00000000000000	-18.94625300000000	0.00000000000000	0.00000000000000	-23.57885500000000	0.00000000000000	
15.54160600000000	10.56324700000000	190.95255299999999	-21.74174700000000	0.35962200000000	0.00000000000000	0.07196000000000	-69.53226300000000	690.02256199999999	-35.80573400000000	0.09619000000000	0.00000000000000	-0.12233600000000	0.00000000000000	-18.84025000000000	0.00000000000000	0.00000000000000	-23.66801300000000	0.00000000000000	
15.54327600000000	12.18266200000000	199.48444000000001	-21.17792900000000	0.36172400000000	0.00000000000000	0.07250400000000	-70.45494900000000	684.73558900000000	-34.90316800000000	0.09570500000000	0.00000000000000	-0.12209800000000	0.00000000000000	-18.69998700000000	0.00000000000000	0.00000000000000	-23.75134600000000	0.00000000000000	
